<svg width="241" height="44" viewBox="0 0 241 44" fill="none" xmlns="http://www.w3.org/2000/svg">
<rect x="0.5" y="0.5" width="240" height="43" rx="4.5" fill="white"/>
<rect x="0.5" y="0.5" width="240" height="43" rx="4.5" stroke="#117EC1"/>
<rect x="2" y="2" width="134" height="39.9" rx="4" fill="#117EC1"/>
<path d="M93.8804 22.0096V28.4947H91.272V17.4268H93.7651V19.3075H93.8948C94.1494 18.6878 94.5553 18.1954 95.1126 17.8303C95.6746 17.4653 96.3688 17.2827 97.195 17.2827C97.9588 17.2827 98.6241 17.446 99.191 17.7727C99.7626 18.0994 100.205 18.5725 100.517 19.1922C100.834 19.8119 100.99 20.5637 100.985 21.4476V28.4947H98.3767V21.8511C98.3767 21.1113 98.1846 20.5325 97.8003 20.1145C97.4208 19.6966 96.8948 19.4876 96.2222 19.4876C95.7659 19.4876 95.36 19.5885 95.0045 19.7903C94.6538 19.9872 94.3776 20.2731 94.1758 20.6478C93.9789 21.0224 93.8804 21.4764 93.8804 22.0096Z" fill="white"/>
<path d="M85.9811 28.4947V17.4268H88.5895V28.4947H85.9811ZM87.2925 15.856C86.8794 15.856 86.5239 15.7191 86.226 15.4453C85.9282 15.1666 85.7793 14.8328 85.7793 14.4437C85.7793 14.0498 85.9282 13.7159 86.226 13.4421C86.5239 13.1635 86.8794 13.0242 87.2925 13.0242C87.7104 13.0242 88.0659 13.1635 88.3589 13.4421C88.6568 13.7159 88.8057 14.0498 88.8057 14.4437C88.8057 14.8328 88.6568 15.1666 88.3589 15.4453C88.0659 15.7191 87.7104 15.856 87.2925 15.856Z" fill="white"/>
<path d="M71.1915 22.0096V28.4947H68.583V17.4268H71.0762V19.3075H71.2059C71.4605 18.6878 71.8664 18.1954 72.4236 17.8303C72.9857 17.4653 73.6798 17.2827 74.506 17.2827C75.2698 17.2827 75.9352 17.446 76.502 17.7727C77.0737 18.0994 77.5156 18.5725 77.8278 19.1922C78.1449 19.8119 78.301 20.5637 78.2962 21.4476V28.4947H75.6878V21.8511C75.6878 21.1113 75.4956 20.5325 75.1113 20.1145C74.7318 19.6966 74.2058 19.4876 73.5333 19.4876C73.0769 19.4876 72.671 19.5885 72.3155 19.7903C71.9649 19.9872 71.6886 20.2731 71.4869 20.6478C71.2899 21.0224 71.1915 21.4764 71.1915 22.0096Z" fill="white"/>
<path d="M60.7146 32.8757C59.7779 32.8757 58.9732 32.7484 58.3007 32.4938C57.6282 32.244 57.0878 31.9078 56.6794 31.485C56.2711 31.0623 55.9877 30.5939 55.8292 30.0799L58.1782 29.5107C58.2839 29.7269 58.4376 29.9406 58.6394 30.152C58.8411 30.3682 59.1125 30.5459 59.4536 30.6852C59.7995 30.8293 60.2342 30.9014 60.7578 30.9014C61.4976 30.9014 62.1101 30.7212 62.5953 30.361C63.0804 30.0055 63.323 29.4194 63.323 28.6028V26.5059H63.1933C63.0588 26.7749 62.8619 27.0512 62.6025 27.3346C62.3479 27.618 62.0092 27.8558 61.5865 28.0479C61.1685 28.2401 60.6425 28.3362 60.0084 28.3362C59.1582 28.3362 58.3872 28.1368 57.6954 27.7381C57.0085 27.3346 56.4609 26.7341 56.0525 25.9367C55.649 25.1345 55.4473 24.1305 55.4473 22.9247C55.4473 21.7094 55.649 20.6838 56.0525 19.8479C56.4609 19.0073 57.0109 18.3708 57.7026 17.9384C58.3944 17.5013 59.1654 17.2827 60.0156 17.2827C60.6642 17.2827 61.1974 17.3932 61.6153 17.6142C62.038 17.8303 62.3743 18.0921 62.6241 18.3996C62.8739 18.7022 63.0636 18.9881 63.1933 19.2571H63.3374V17.4268H65.9099V28.6748C65.9099 29.6212 65.6841 30.4042 65.2325 31.0239C64.781 31.6436 64.1637 32.1071 63.3807 32.4146C62.5977 32.722 61.709 32.8757 60.7146 32.8757ZM60.7362 26.2898C61.2886 26.2898 61.7594 26.1553 62.1485 25.8863C62.5376 25.6172 62.833 25.2305 63.0348 24.7261C63.2366 24.2217 63.3374 23.6165 63.3374 22.9103C63.3374 22.2138 63.2366 21.6037 63.0348 21.0801C62.8379 20.5565 62.5448 20.1506 62.1557 19.8623C61.7714 19.5693 61.2982 19.4228 60.7362 19.4228C60.155 19.4228 59.6698 19.5741 59.2807 19.8767C58.8916 20.1794 58.5985 20.5949 58.4016 21.1233C58.2046 21.6469 58.1061 22.2426 58.1061 22.9103C58.1061 23.5877 58.2046 24.1809 58.4016 24.6901C58.6033 25.1945 58.8988 25.5884 59.2879 25.8718C59.6818 26.1505 60.1646 26.2898 60.7362 26.2898Z" fill="white"/>
<path d="M50.6104 28.4947V17.4268H53.2189V28.4947H50.6104ZM51.9219 15.856C51.5088 15.856 51.1533 15.7191 50.8554 15.4453C50.5576 15.1666 50.4087 14.8328 50.4087 14.4437C50.4087 14.0498 50.5576 13.7159 50.8554 13.4421C51.1533 13.1635 51.5088 13.0242 51.9219 13.0242C52.3398 13.0242 52.6953 13.1635 52.9883 13.4421C53.2861 13.7159 53.4351 14.0498 53.4351 14.4437C53.4351 14.8328 53.2861 15.1666 52.9883 15.4453C52.6953 15.7191 52.3398 15.856 51.9219 15.856Z" fill="white"/>
<path d="M45.5682 17.7943C45.501 17.165 45.2176 16.675 44.718 16.3244C44.2232 15.9737 43.5795 15.7983 42.7869 15.7983C42.2296 15.7983 41.7516 15.8824 41.3529 16.0505C40.9542 16.2187 40.6492 16.4468 40.4378 16.7351C40.2265 17.0233 40.1184 17.3524 40.1136 17.7222C40.1136 18.0297 40.1832 18.2963 40.3225 18.5221C40.4666 18.7478 40.6612 18.94 40.9062 19.0985C41.1512 19.2522 41.4226 19.3819 41.7204 19.4876C42.0183 19.5933 42.3185 19.6822 42.6211 19.7542L44.0046 20.1001C44.5618 20.2298 45.0975 20.4051 45.6115 20.6261C46.1303 20.8471 46.5938 21.1257 47.0022 21.462C47.4153 21.7982 47.7419 22.2042 47.9821 22.6797C48.2223 23.1553 48.3424 23.7125 48.3424 24.3514C48.3424 25.2161 48.1214 25.9775 47.6795 26.6356C47.2375 27.2889 46.5986 27.8005 45.7628 28.1704C44.9317 28.5355 43.9253 28.7181 42.7436 28.7181C41.5955 28.7181 40.5987 28.5403 39.7533 28.1848C38.9126 27.8294 38.2545 27.3106 37.7789 26.6284C37.3082 25.9463 37.0536 25.1152 37.0151 24.1353H39.6452C39.6836 24.6493 39.8422 25.0768 40.1208 25.4179C40.3994 25.7589 40.7621 26.0135 41.2088 26.1817C41.6604 26.3498 42.1648 26.4339 42.722 26.4339C43.3033 26.4339 43.8125 26.3474 44.2496 26.1745C44.6915 25.9967 45.0374 25.7517 45.2872 25.4395C45.537 25.1224 45.6643 24.7526 45.6691 24.3298C45.6643 23.9455 45.5514 23.6285 45.3304 23.3787C45.1095 23.1241 44.7996 22.9127 44.4009 22.7446C44.007 22.5716 43.5459 22.4179 43.0174 22.2834L41.3385 21.8511C40.1232 21.5388 39.1624 21.0657 38.4563 20.4316C37.7549 19.7927 37.4042 18.9448 37.4042 17.888C37.4042 17.0185 37.6396 16.2571 38.1104 15.6038C38.586 14.9505 39.2321 14.4437 40.0487 14.0834C40.8654 13.7183 41.7901 13.5358 42.8229 13.5358C43.8701 13.5358 44.7876 13.7183 45.5754 14.0834C46.3681 14.4437 46.9901 14.9457 47.4417 15.5894C47.8933 16.2283 48.1262 16.9633 48.1406 17.7943H45.5682Z" fill="white"/>
<path d="M163.281 21.0235C163.295 21.1223 163.287 21.2231 163.256 21.318C163.225 21.4129 163.172 21.4993 163.102 21.5705C163.032 21.6417 162.947 21.6958 162.852 21.7284C162.758 21.7611 162.657 21.7714 162.558 21.7587H161.475C161.004 21.7587 160.768 21.5179 160.768 21.0235V16.2602C160.768 15.8428 160.549 15.6205 160.063 15.6205C159.64 15.6238 159.231 15.771 158.903 16.0379V21.0242C158.903 21.5193 158.667 21.7593 158.196 21.7593H157.111C157.012 21.7721 156.911 21.7617 156.817 21.7291C156.723 21.6965 156.637 21.6424 156.567 21.5712C156.497 21.5 156.445 21.4135 156.414 21.3187C156.383 21.2238 156.374 21.123 156.389 21.0242V16.2602C156.389 15.8428 156.169 15.6205 155.682 15.6205C155.259 15.6241 154.85 15.7713 154.522 16.0379V21.0242C154.538 21.1232 154.531 21.2245 154.5 21.32C154.47 21.4155 154.417 21.5026 154.347 21.5741C154.277 21.6456 154.191 21.6996 154.096 21.7318C154.001 21.764 153.9 21.7734 153.8 21.7593H152.73C152.631 21.7734 152.53 21.764 152.435 21.7318C152.34 21.6996 152.254 21.6455 152.183 21.5739C152.113 21.5023 152.061 21.4152 152.03 21.3196C152 21.224 151.992 21.1226 152.008 21.0235V14.5001C151.992 14.4011 152 14.2998 152.03 14.2043C152.061 14.1088 152.113 14.0218 152.184 13.9502C152.254 13.8787 152.34 13.8247 152.435 13.7925C152.53 13.7603 152.631 13.7509 152.73 13.765H153.124C153.469 13.765 153.595 13.9014 153.83 14.3405C154.546 13.8194 155.409 13.5395 156.295 13.5413C157.346 13.5413 157.863 13.8291 158.116 14.196C158.882 13.7335 159.766 13.5059 160.66 13.5413C162.701 13.5413 163.281 14.7927 163.281 16.2268L163.281 21.0235Z" fill="#117EC1"/>
<path d="M167.833 25.0204C167.778 25.241 167.647 25.4353 167.464 25.5696C167.28 25.7038 167.055 25.7696 166.828 25.7555H165.917C165.337 25.7555 165.038 25.227 165.304 24.6433L166.842 21.254L164.173 14.8847C164.109 14.7692 164.077 14.6389 164.08 14.507C164.082 14.3751 164.12 14.2463 164.188 14.1335C164.257 14.0207 164.354 13.9279 164.469 13.8645C164.585 13.8011 164.715 13.7694 164.847 13.7725H165.695C165.919 13.7582 166.14 13.8246 166.319 13.9596C166.498 14.0946 166.623 14.2892 166.671 14.5083L168.117 18.6681L169.404 14.4981C169.445 14.2762 169.568 14.0778 169.748 13.9418C169.928 13.8057 170.152 13.742 170.377 13.763H171.225C171.357 13.7604 171.487 13.7923 171.603 13.8556C171.718 13.9189 171.815 14.0114 171.884 14.1238C171.953 14.2362 171.992 14.3647 171.995 14.4965C171.999 14.6283 171.969 14.7589 171.907 14.8752L167.833 25.0204Z" fill="#117EC1"/>
<path d="M179.448 15.7317C179.5 16.0221 179.526 16.3165 179.527 16.6114C179.527 18.6259 178.427 19.6801 175.994 19.6801C175.727 19.686 175.459 19.6753 175.193 19.6481C175.124 19.734 175.085 19.8406 175.084 19.9509C175.084 20.1104 175.178 20.2066 175.397 20.2386L178.427 20.6389C180.075 20.8626 180.547 21.6939 180.547 22.9882C180.547 25.1472 178.114 25.9778 175.711 25.9778C173.733 25.9778 171.99 25.3552 171.99 23.8038C171.998 23.3421 172.165 22.8973 172.463 22.5447C172.761 22.1922 173.172 21.9535 173.626 21.8691C173.397 21.7423 173.208 21.5537 173.08 21.3246C172.952 21.0956 172.891 20.8354 172.904 20.5735C172.934 20.2974 173.024 20.0313 173.168 19.7938C173.312 19.5563 173.506 19.3532 173.737 19.1987C173.304 18.9284 172.956 18.5425 172.731 18.0846C172.506 17.6267 172.414 17.115 172.464 16.6073C172.464 14.5929 173.555 13.5386 175.997 13.5386C176.618 13.5083 177.239 13.584 177.834 13.7623H179.743C179.842 13.7494 179.943 13.7596 180.037 13.7922C180.132 13.8248 180.217 13.8789 180.287 13.9501C180.357 14.0213 180.41 14.1078 180.441 14.2028C180.472 14.2978 180.48 14.3986 180.466 14.4974V14.8322C180.466 15.2966 180.246 15.5039 179.79 15.6315L179.448 15.7317ZM174.913 22.3022C174.745 22.3663 174.6 22.4777 174.494 22.6229C174.388 22.7682 174.326 22.941 174.317 23.1205C174.317 23.6961 174.741 24.0643 175.98 24.0643C177.174 24.0643 178.069 23.647 178.069 23.1205C178.069 22.8648 177.944 22.7032 177.629 22.6575L174.913 22.3022ZM175.997 17.7946C176.156 17.8145 176.317 17.7973 176.468 17.7443C176.618 17.6913 176.755 17.604 176.866 17.4892C176.977 17.3744 177.06 17.2354 177.108 17.083C177.156 16.9307 177.168 16.7692 177.143 16.6114C177.147 16.4586 177.12 16.3065 177.064 16.1642C177.008 16.0219 176.924 15.8922 176.818 15.7828C176.711 15.6734 176.583 15.5864 176.442 15.5271C176.301 15.4677 176.15 15.4371 175.997 15.4371C175.844 15.4371 175.693 15.4677 175.552 15.5271C175.411 15.5864 175.284 15.6734 175.177 15.7828C175.07 15.8922 174.986 16.0219 174.93 16.1642C174.874 16.3065 174.847 16.4586 174.851 16.6114C174.826 16.7693 174.838 16.9308 174.886 17.0832C174.934 17.2356 175.017 17.3747 175.129 17.4895C175.24 17.6043 175.376 17.6917 175.527 17.7446C175.678 17.7975 175.839 17.8146 175.997 17.7946Z" fill="#1B3156"/>
<path d="M180.942 17.7638C180.942 15.2699 181.727 13.5439 184.628 13.5439C187.529 13.5439 188.314 15.2706 188.314 17.7638C188.314 20.2569 187.529 21.9836 184.628 21.9836C181.727 21.9836 180.942 20.2563 180.942 17.7638ZM183.454 17.7638C183.454 19.3622 183.768 19.9378 184.633 19.9378C185.497 19.9378 185.81 19.3622 185.81 17.7638C185.81 16.1653 185.496 15.5898 184.633 15.5898C183.769 15.5898 183.454 16.168 183.454 17.7638Z" fill="#1B3156"/>
<path d="M192.371 21.8868C191.711 21.8868 191.477 21.6461 191.24 21.0391L188.791 14.9174C188.525 14.2457 188.87 13.7663 189.451 13.7663H190.22C190.441 13.7533 190.659 13.8206 190.835 13.9556C191.01 14.0907 191.131 14.2845 191.175 14.5014L192.635 18.7212L194.096 14.5C194.139 14.2826 194.26 14.0881 194.435 13.9528C194.611 13.8176 194.83 13.7508 195.051 13.7649H195.828C196.409 13.7649 196.754 14.2423 196.487 14.916L194.032 21.0337C193.797 21.6413 193.561 21.8813 192.901 21.8813L192.371 21.8868Z" fill="#1B3156"/>
<path d="M197.663 21.6461C197.484 21.5883 197.33 21.4712 197.228 21.3141C197.125 21.1571 197.079 20.9696 197.097 20.7828V20.3381C197.092 20.2211 197.116 20.1046 197.166 19.9989C197.217 19.8932 197.293 19.8016 197.387 19.7321C197.482 19.6626 197.592 19.6174 197.707 19.6005C197.823 19.5836 197.942 19.5955 198.052 19.6351C198.691 19.8174 199.351 19.9196 200.015 19.9392C200.815 19.9392 201.175 19.7796 201.175 19.3834C201.175 18.9872 200.902 18.872 200.39 18.8277C197.909 18.604 197.219 17.9323 197.219 16.2697C197.219 14.6392 198.255 13.5522 200.673 13.5522C201.408 13.5406 202.142 13.6266 202.855 13.8079C203.033 13.8657 203.187 13.9828 203.29 14.1399C203.393 14.2969 203.439 14.4844 203.42 14.6712V15.1186C203.425 15.2356 203.401 15.3522 203.351 15.4578C203.3 15.5635 203.225 15.6552 203.13 15.7246C203.036 15.7941 202.926 15.8393 202.81 15.8562C202.694 15.8732 202.576 15.8613 202.465 15.8217C201.913 15.6721 201.343 15.5969 200.77 15.598C200.063 15.598 199.671 15.7576 199.671 16.1538C199.671 16.55 199.937 16.6652 200.456 16.7096C202.936 16.9332 203.627 17.6049 203.627 19.2675C203.627 20.7964 202.731 21.985 200.077 21.985C199.261 21.9817 198.448 21.8677 197.663 21.6461Z" fill="#117EC1"/>
<path d="M208.715 19.7831C209.022 19.7842 209.328 19.7464 209.626 19.6706C209.738 19.6284 209.858 19.6144 209.977 19.6299C210.096 19.6453 210.209 19.6897 210.307 19.7592C210.404 19.8286 210.483 19.921 210.537 20.0281C210.59 20.1353 210.617 20.2539 210.614 20.3736V20.8946C210.639 21.0825 210.596 21.2732 210.492 21.4318C210.388 21.5904 210.231 21.7062 210.048 21.758C209.53 21.9161 208.989 21.9916 208.447 21.9817C205.558 21.9817 204.488 20.4814 204.488 17.7618C204.488 15.0423 205.555 13.542 208.447 13.542C208.989 13.5314 209.53 13.6069 210.048 13.7657C210.231 13.8172 210.389 13.933 210.492 14.0916C210.596 14.2503 210.639 14.4411 210.614 14.629V15.1561C210.617 15.2761 210.591 15.3951 210.538 15.5026C210.485 15.6101 210.406 15.7028 210.308 15.7724C210.21 15.842 210.097 15.8863 209.978 15.9015C209.859 15.9166 209.738 15.9021 209.626 15.8592C209.328 15.7841 209.022 15.7468 208.715 15.7481C207.679 15.7481 206.972 16.2431 206.972 17.7625C206.972 19.2819 207.68 19.7831 208.715 19.7831Z" fill="#117EC1"/>
<path d="M211.394 17.7638C211.394 15.2699 212.178 13.5439 215.079 13.5439C217.98 13.5439 218.765 15.2706 218.765 17.7638C218.765 20.2569 217.98 21.9836 215.079 21.9836C212.178 21.9836 211.394 20.2563 211.394 17.7638ZM213.906 17.7638C213.906 19.3622 214.22 19.9378 215.083 19.9378C215.946 19.9378 216.261 19.3622 216.261 17.7638C216.261 16.1653 215.948 15.5898 215.083 15.5898C214.218 15.5898 213.911 16.1694 213.911 17.7638H213.906Z" fill="#117EC1"/>
<path d="M220.519 12.7905C220.519 12.3274 220.708 12.1508 221.273 11.9912L222.091 11.7676C222.751 11.5923 223.033 11.9271 223.033 12.4236V13.765H224.261C224.36 13.7507 224.461 13.7601 224.556 13.7922C224.651 13.8243 224.737 13.8783 224.808 13.9499C224.878 14.0214 224.93 14.1085 224.961 14.2041C224.991 14.2997 224.999 14.4011 224.983 14.5001V15.1547C224.999 15.2538 224.991 15.3552 224.961 15.4507C224.93 15.5463 224.878 15.6334 224.808 15.7049C224.737 15.7765 224.651 15.8305 224.556 15.8626C224.461 15.8948 224.36 15.9041 224.261 15.8899H223.033V18.9477C223.033 19.5703 223.269 19.9208 224.069 19.9208H224.224C224.314 19.9159 224.403 19.9297 224.487 19.9614C224.57 19.9932 224.646 20.042 224.71 20.1049C224.774 20.1685 224.825 20.2446 224.859 20.3284C224.893 20.4122 224.909 20.5021 224.907 20.5925V21.121C224.913 21.3094 224.852 21.4939 224.734 21.6406C224.615 21.7874 224.448 21.8866 224.263 21.9203C224.03 21.9642 223.794 21.9857 223.557 21.9844C221.327 21.9844 220.526 21.0406 220.526 19.1543V15.8899H219.912C219.813 15.9041 219.712 15.8948 219.617 15.8626C219.522 15.8305 219.436 15.7765 219.365 15.7049C219.295 15.6334 219.243 15.5463 219.212 15.4507C219.182 15.3552 219.174 15.2538 219.19 15.1547V14.7879C219.19 14.3705 219.362 14.1639 219.818 14.0377L220.524 13.8461L220.519 12.7905Z" fill="#117EC1"/>
<path d="M185.758 29.3964C185.758 29.6453 185.635 29.7803 185.4 29.7803H185.06C184.825 29.7803 184.701 29.6439 184.701 29.3964V26.3958C184.701 25.9458 184.457 25.7821 184.033 25.7821C183.684 25.7805 183.341 25.8769 183.044 26.0603V29.3964C183.044 29.6453 182.922 29.7803 182.686 29.7803H182.345C182.111 29.7803 181.987 29.6439 181.987 29.3964V25.3047C181.981 25.2626 181.985 25.2195 181.997 25.1789C182.01 25.1382 182.032 25.1011 182.062 25.0702C182.091 25.0398 182.126 25.0165 182.166 25.0022C182.205 24.9879 182.248 24.9829 182.289 24.9876H182.393C182.591 24.9876 182.647 25.064 182.734 25.2659L182.782 25.3716C183.19 25.0579 183.688 24.883 184.203 24.8724C184.428 24.8429 184.657 24.8712 184.868 24.9547C185.08 25.0382 185.266 25.1742 185.41 25.3498C185.85 25.0424 186.373 24.876 186.91 24.8724C187.119 24.8432 187.332 24.8624 187.532 24.9285C187.732 24.9946 187.914 25.1059 188.064 25.2537C188.214 25.4015 188.328 25.5819 188.398 25.7809C188.467 25.9799 188.49 26.1922 188.464 26.4013V29.4018C188.464 29.6507 188.342 29.7858 188.106 29.7858H187.774C187.724 29.79 187.673 29.7828 187.626 29.7647C187.579 29.7465 187.536 29.7179 187.502 29.6809C187.467 29.644 187.441 29.5997 187.426 29.5513C187.411 29.503 187.407 29.4519 187.415 29.4018V26.4013C187.415 25.9512 187.161 25.7876 186.747 25.7876C186.386 25.7832 186.032 25.8862 185.729 26.0835C185.749 26.259 185.758 26.4355 185.758 26.612V29.3964Z" fill="#1D1D1B"/>
<path d="M190.968 31.852C190.939 31.9508 190.878 32.037 190.794 32.0964C190.71 32.1558 190.609 32.1848 190.506 32.1786H190.053C189.991 32.1766 189.931 32.1585 189.878 32.126C189.825 32.0934 189.782 32.0477 189.752 31.9933C189.723 31.9389 189.708 31.8777 189.71 31.8158C189.711 31.754 189.729 31.6935 189.761 31.6406L190.769 29.6112L189.159 25.5066C189.045 25.2174 189.195 24.9883 189.47 24.9883H189.77C189.87 24.983 189.969 25.0126 190.05 25.0718C190.13 25.1311 190.188 25.2165 190.214 25.3136L191.305 28.4607L192.396 25.3136C192.42 25.2157 192.477 25.1294 192.558 25.0698C192.64 25.0103 192.739 24.9814 192.84 24.9883H193.141C193.414 24.9883 193.565 25.2174 193.451 25.5066L190.968 31.852Z" fill="#1D1D1B"/>
<path d="M197.844 29.4632C197.85 29.5054 197.846 29.5484 197.834 29.5891C197.821 29.6297 197.799 29.6669 197.769 29.6978C197.74 29.7281 197.705 29.7514 197.665 29.7657C197.626 29.78 197.583 29.785 197.542 29.7803H197.438C197.24 29.7803 197.184 29.7039 197.097 29.5021L197.049 29.3964C196.646 29.7211 196.144 29.8974 195.627 29.8955C195.415 29.9226 195.201 29.9024 194.998 29.8365C194.795 29.7705 194.61 29.6605 194.455 29.5143C194.3 29.368 194.179 29.1893 194.102 28.9908C194.024 28.7924 193.992 28.5792 194.006 28.3666C194.006 27.3294 194.666 26.8889 195.73 26.803L196.785 26.717V26.4763C196.785 25.9874 196.559 25.7944 195.863 25.7944C195.478 25.7994 195.097 25.8641 194.732 25.986C194.696 26.0045 194.655 26.0132 194.615 26.0112C194.574 26.0092 194.535 25.9965 194.501 25.9744C194.467 25.9523 194.439 25.9219 194.42 25.8862C194.401 25.8504 194.391 25.8104 194.392 25.7698V25.4084C194.383 25.327 194.405 25.2452 194.454 25.1794C194.503 25.1137 194.574 25.0688 194.655 25.0538C195.073 24.9379 195.504 24.8766 195.937 24.8717C197.481 24.8717 197.84 25.5666 197.84 26.5765L197.844 29.4632ZM195.798 27.5647C195.327 27.622 195.054 27.804 195.054 28.3025C195.042 28.4001 195.053 28.4991 195.085 28.5918C195.118 28.6845 195.171 28.7685 195.241 28.8372C195.312 28.9059 195.397 28.9576 195.49 28.9881C195.584 29.0186 195.683 29.0271 195.78 29.0131C196.141 29.0163 196.493 28.9053 196.787 28.696V27.4447L195.798 27.5647Z" fill="#1D1D1B"/>
<path d="M200.896 24.869C201.246 24.8645 201.595 24.9104 201.932 25.0053C202.012 25.0197 202.085 25.0645 202.134 25.1304C202.183 25.1963 202.205 25.2784 202.195 25.3599V25.7241C202.196 25.7647 202.187 25.8049 202.167 25.8407C202.148 25.8765 202.12 25.9066 202.085 25.928C202.051 25.9494 202.011 25.9614 201.971 25.9627C201.93 25.964 201.89 25.9546 201.854 25.9355C201.566 25.8389 201.262 25.7966 200.959 25.8107C200.045 25.8107 199.782 26.4442 199.782 27.3744C199.782 28.3046 200.045 28.9381 200.959 28.9381C201.262 28.9522 201.566 28.9098 201.854 28.8133C202.058 28.7451 202.195 28.8603 202.195 29.0247V29.3888C202.205 29.4704 202.183 29.5525 202.134 29.6184C202.085 29.6843 202.012 29.729 201.932 29.7434C201.595 29.8377 201.246 29.8836 200.896 29.8798C199.229 29.8798 198.72 28.8624 198.72 27.3669C198.72 25.8714 199.229 24.869 200.896 24.869Z" fill="#1D1D1B"/>
<path d="M205.134 24.8689C205.484 24.8645 205.833 24.9104 206.17 25.0053C206.251 25.0196 206.323 25.0643 206.372 25.1302C206.421 25.1962 206.443 25.2784 206.433 25.3599V25.7241C206.434 25.7647 206.425 25.8049 206.406 25.8407C206.386 25.8765 206.358 25.9066 206.324 25.928C206.289 25.9494 206.249 25.9614 206.209 25.9627C206.168 25.964 206.128 25.9546 206.092 25.9355C205.804 25.8389 205.5 25.7966 205.197 25.8107C204.284 25.8107 204.02 26.4442 204.02 27.3744C204.02 28.3046 204.283 28.9381 205.197 28.9381C205.5 28.9522 205.804 28.9098 206.092 28.8133C206.297 28.7451 206.433 28.8603 206.433 29.0247V29.3888C206.443 29.4704 206.421 29.5526 206.372 29.6186C206.323 29.6845 206.251 29.7292 206.17 29.7434C205.833 29.8377 205.484 29.8836 205.134 29.8798C203.467 29.8798 202.958 28.8624 202.958 27.3669C202.958 25.8714 203.468 24.8689 205.134 24.8689Z" fill="#1D1D1B"/>
<path d="M207.197 27.386C207.197 25.9082 207.606 24.873 209.289 24.873C210.971 24.873 211.38 25.9041 211.38 27.386C211.38 28.8678 210.971 29.8989 209.289 29.8989C207.606 29.8989 207.197 28.8583 207.197 27.386ZM210.315 27.386C210.315 26.3631 210.179 25.7752 209.289 25.7752C208.399 25.7752 208.262 26.3604 208.262 27.386C208.262 28.4116 208.399 28.9967 209.289 28.9967C210.179 28.9967 210.315 28.4055 210.315 27.386Z" fill="#1D1D1B"/>
<path d="M216.184 29.4632C216.19 29.5054 216.186 29.5484 216.174 29.589C216.161 29.6297 216.139 29.6669 216.109 29.6978C216.08 29.7281 216.045 29.7514 216.005 29.7657C215.966 29.78 215.923 29.785 215.882 29.7803H215.778C215.58 29.7803 215.524 29.7039 215.437 29.5021L215.389 29.3964C214.943 29.7146 214.411 29.8888 213.863 29.8955C212.667 29.8955 212.244 29.2907 212.244 28.3666V25.3661C212.244 25.1158 212.366 24.9822 212.602 24.9822H212.943C213.179 24.9822 213.3 25.1186 213.3 25.3661V28.2725C213.3 28.7601 213.546 28.9817 214.044 28.9817C214.424 28.9885 214.799 28.8924 215.128 28.7035V25.3695C215.128 25.1192 215.251 24.9856 215.486 24.9856H215.827C216.062 24.9856 216.185 25.122 216.185 25.3695L216.184 29.4632Z" fill="#1D1D1B"/>
<path d="M217.221 25.3012C217.215 25.2592 217.218 25.2164 217.231 25.1759C217.244 25.1353 217.265 25.0983 217.294 25.0673C217.323 25.0369 217.359 25.0136 217.398 24.9992C217.438 24.9848 217.48 24.9796 217.521 24.9841H217.625C217.823 24.9841 217.88 25.0605 217.966 25.2624L218.012 25.3681C218.458 25.0493 218.991 24.875 219.539 24.8689C220.735 24.8689 221.159 25.4738 221.159 26.3978V29.3983C221.159 29.6472 221.036 29.7823 220.802 29.7823H220.461C220.226 29.7823 220.103 29.6459 220.103 29.3983V26.4899C220.103 26.0009 219.859 25.7806 219.359 25.7806C218.98 25.7737 218.606 25.8699 218.276 26.0589V29.3949C218.276 29.6438 218.154 29.7788 217.918 29.7788H217.577C217.341 29.7788 217.219 29.6425 217.219 29.3949L217.221 25.3012Z" fill="#1D1D1B"/>
<path d="M223.672 24.9849H224.643C224.877 24.9849 225 25.1213 225 25.3688V25.5052C225 25.7555 224.877 25.8892 224.643 25.8892H223.672V28.2691C223.672 28.8147 223.974 28.9783 224.445 28.9783C224.495 28.9794 224.545 28.9762 224.595 28.9688C224.793 28.9408 224.877 29.0452 224.877 29.1897V29.5539C224.877 29.6903 224.809 29.8137 224.595 29.8608C224.49 29.8834 224.383 29.8932 224.276 29.8901C223.23 29.8901 222.617 29.4284 222.617 28.3898V25.8926H222.072C222.03 25.8986 221.988 25.8949 221.948 25.8819C221.908 25.8689 221.872 25.8469 221.842 25.8176C221.812 25.7877 221.789 25.7514 221.774 25.7114C221.76 25.6713 221.755 25.6286 221.76 25.5864V25.4889C221.76 25.2884 221.828 25.2024 222.033 25.1438L222.617 24.9815V24.112C222.617 23.9074 222.685 23.8242 222.89 23.767L223.343 23.6306C223.381 23.6151 223.422 23.6094 223.462 23.6142C223.502 23.619 223.54 23.634 223.573 23.6579C223.606 23.6821 223.632 23.7142 223.649 23.7512C223.667 23.7883 223.675 23.8291 223.672 23.8699V24.9849Z" fill="#1D1D1B"/>
</svg>
